<mxfile host="app.diagrams.net" agent="Mozilla/5.0 (Windows NT 10.0; Win64; x64) AppleWebKit/537.36 (KHTML, like Gecko) Chrome/134.0.0.0 Safari/537.36" version="26.2.8">
  <diagram name="PÃ¡gina-1" id="7zUxZMJrBuJeWkbXy5ez">
    <mxGraphModel dx="1680" dy="2083" grid="1" gridSize="10" guides="1" tooltips="1" connect="1" arrows="1" fold="1" page="1" pageScale="1" pageWidth="827" pageHeight="1169" math="0" shadow="0">
      <root>
        <mxCell id="0" />
        <mxCell id="1" parent="0" />
        <mxCell id="2L0Wouq-ZZpo0qAsjQZg-6" value="Region" style="points=[[0,0],[0.25,0],[0.5,0],[0.75,0],[1,0],[1,0.25],[1,0.5],[1,0.75],[1,1],[0.75,1],[0.5,1],[0.25,1],[0,1],[0,0.75],[0,0.5],[0,0.25]];outlineConnect=0;gradientColor=none;html=1;whiteSpace=wrap;fontSize=12;fontStyle=0;container=1;pointerEvents=0;collapsible=0;recursiveResize=0;shape=mxgraph.aws4.group;grIcon=mxgraph.aws4.group_region;strokeColor=#00A4A6;fillColor=none;verticalAlign=top;align=left;spacingLeft=30;fontColor=#147EBA;dashed=1;" parent="1" vertex="1">
          <mxGeometry x="110" y="-880" width="1170" height="1100" as="geometry" />
        </mxCell>
        <mxCell id="2L0Wouq-ZZpo0qAsjQZg-5" value="VPC" style="points=[[0,0],[0.25,0],[0.5,0],[0.75,0],[1,0],[1,0.25],[1,0.5],[1,0.75],[1,1],[0.75,1],[0.5,1],[0.25,1],[0,1],[0,0.75],[0,0.5],[0,0.25]];outlineConnect=0;gradientColor=none;html=1;whiteSpace=wrap;fontSize=12;fontStyle=0;container=1;pointerEvents=0;collapsible=0;recursiveResize=0;shape=mxgraph.aws4.group;grIcon=mxgraph.aws4.group_vpc2;strokeColor=#8C4FFF;fillColor=none;verticalAlign=top;align=left;spacingLeft=30;fontColor=#AAB7B8;dashed=0;" parent="2L0Wouq-ZZpo0qAsjQZg-6" vertex="1">
          <mxGeometry x="40" y="200" width="1060" height="840" as="geometry" />
        </mxCell>
        <mxCell id="2L0Wouq-ZZpo0qAsjQZg-7" value="Private subnet" style="points=[[0,0],[0.25,0],[0.5,0],[0.75,0],[1,0],[1,0.25],[1,0.5],[1,0.75],[1,1],[0.75,1],[0.5,1],[0.25,1],[0,1],[0,0.75],[0,0.5],[0,0.25]];outlineConnect=0;gradientColor=none;html=1;whiteSpace=wrap;fontSize=12;fontStyle=0;container=1;pointerEvents=0;collapsible=0;recursiveResize=0;shape=mxgraph.aws4.group;grIcon=mxgraph.aws4.group_security_group;grStroke=0;strokeColor=#00A4A6;fillColor=#E6F6F7;verticalAlign=top;align=left;spacingLeft=30;fontColor=#147EBA;dashed=0;" parent="2L0Wouq-ZZpo0qAsjQZg-5" vertex="1">
          <mxGeometry x="230" y="230" width="565" height="280" as="geometry" />
        </mxCell>
        <mxCell id="2L0Wouq-ZZpo0qAsjQZg-20" value="" style="rounded=1;arcSize=10;dashed=1;strokeColor=#ff0000;fillColor=none;gradientColor=none;dashPattern=8 4;strokeWidth=2;" parent="2L0Wouq-ZZpo0qAsjQZg-7" vertex="1">
          <mxGeometry x="100" y="80" width="140" height="140" as="geometry" />
        </mxCell>
        <mxCell id="2L0Wouq-ZZpo0qAsjQZg-21" value="Amazon SageMaker" style="sketch=0;outlineConnect=0;fontColor=#232F3E;gradientColor=none;strokeColor=#ffffff;fillColor=#232F3E;dashed=0;verticalLabelPosition=middle;verticalAlign=bottom;align=center;html=1;whiteSpace=wrap;fontSize=10;fontStyle=1;spacing=3;shape=mxgraph.aws4.productIcon;prIcon=mxgraph.aws4.sagemaker;" parent="2L0Wouq-ZZpo0qAsjQZg-7" vertex="1">
          <mxGeometry x="130" y="97.75" width="80" height="110" as="geometry" />
        </mxCell>
        <mxCell id="2L0Wouq-ZZpo0qAsjQZg-25" value="Bucket de Data&amp;nbsp;&lt;div&gt;Accidentes&lt;/div&gt;" style="sketch=0;points=[[0,0,0],[0.25,0,0],[0.5,0,0],[0.75,0,0],[1,0,0],[0,1,0],[0.25,1,0],[0.5,1,0],[0.75,1,0],[1,1,0],[0,0.25,0],[0,0.5,0],[0,0.75,0],[1,0.25,0],[1,0.5,0],[1,0.75,0]];outlineConnect=0;fontColor=#232F3E;fillColor=#7AA116;strokeColor=#ffffff;dashed=0;verticalLabelPosition=bottom;verticalAlign=top;align=center;html=1;fontSize=12;fontStyle=0;aspect=fixed;shape=mxgraph.aws4.resourceIcon;resIcon=mxgraph.aws4.s3;" parent="2L0Wouq-ZZpo0qAsjQZg-7" vertex="1">
          <mxGeometry x="365" y="97.75" width="80" height="80" as="geometry" />
        </mxCell>
        <mxCell id="2L0Wouq-ZZpo0qAsjQZg-8" value="Public subnet" style="points=[[0,0],[0.25,0],[0.5,0],[0.75,0],[1,0],[1,0.25],[1,0.5],[1,0.75],[1,1],[0.75,1],[0.5,1],[0.25,1],[0,1],[0,0.75],[0,0.5],[0,0.25]];outlineConnect=0;gradientColor=none;html=1;whiteSpace=wrap;fontSize=12;fontStyle=0;container=1;pointerEvents=0;collapsible=0;recursiveResize=0;shape=mxgraph.aws4.group;grIcon=mxgraph.aws4.group_security_group;grStroke=0;strokeColor=#7AA116;fillColor=#F2F6E8;verticalAlign=top;align=left;spacingLeft=30;fontColor=#248814;dashed=0;" parent="2L0Wouq-ZZpo0qAsjQZg-5" vertex="1">
          <mxGeometry x="455" y="600" width="150" height="150" as="geometry" />
        </mxCell>
        <mxCell id="2L0Wouq-ZZpo0qAsjQZg-11" value="" style="sketch=0;outlineConnect=0;fontColor=#232F3E;gradientColor=none;fillColor=#8C4FFF;strokeColor=none;dashed=0;verticalLabelPosition=bottom;verticalAlign=top;align=center;html=1;fontSize=12;fontStyle=0;aspect=fixed;pointerEvents=1;shape=mxgraph.aws4.nat_gateway;" parent="2L0Wouq-ZZpo0qAsjQZg-8" vertex="1">
          <mxGeometry x="40" y="50" width="70" height="70" as="geometry" />
        </mxCell>
        <mxCell id="TNZuNi8cJkDnf0n_y3eP-9" style="edgeStyle=orthogonalEdgeStyle;rounded=0;orthogonalLoop=1;jettySize=auto;html=1;" edge="1" parent="2L0Wouq-ZZpo0qAsjQZg-5" source="2L0Wouq-ZZpo0qAsjQZg-22" target="2L0Wouq-ZZpo0qAsjQZg-7">
          <mxGeometry relative="1" as="geometry" />
        </mxCell>
        <mxCell id="2L0Wouq-ZZpo0qAsjQZg-22" value="Lambda de Consultas&lt;div&gt;&lt;br&gt;&lt;/div&gt;" style="sketch=0;outlineConnect=0;fontColor=#232F3E;gradientColor=none;fillColor=#ED7100;strokeColor=none;dashed=0;verticalLabelPosition=bottom;verticalAlign=top;align=center;html=1;fontSize=12;fontStyle=0;aspect=fixed;pointerEvents=1;shape=mxgraph.aws4.lambda_function;" parent="2L0Wouq-ZZpo0qAsjQZg-5" vertex="1">
          <mxGeometry x="195" y="70" width="80" height="80" as="geometry" />
        </mxCell>
        <mxCell id="2L0Wouq-ZZpo0qAsjQZg-23" value="Lambda de carga de datos" style="sketch=0;outlineConnect=0;fontColor=#232F3E;gradientColor=none;fillColor=#ED7100;strokeColor=none;dashed=0;verticalLabelPosition=bottom;verticalAlign=top;align=center;html=1;fontSize=12;fontStyle=0;aspect=fixed;pointerEvents=1;shape=mxgraph.aws4.lambda_function;" parent="2L0Wouq-ZZpo0qAsjQZg-5" vertex="1">
          <mxGeometry x="620" y="70" width="80" height="80" as="geometry" />
        </mxCell>
        <mxCell id="2L0Wouq-ZZpo0qAsjQZg-12" value="" style="sketch=0;outlineConnect=0;fontColor=#232F3E;gradientColor=none;fillColor=#8C4FFF;strokeColor=none;dashed=0;verticalLabelPosition=bottom;verticalAlign=top;align=center;html=1;fontSize=12;fontStyle=0;aspect=fixed;pointerEvents=1;shape=mxgraph.aws4.internet_gateway;" parent="2L0Wouq-ZZpo0qAsjQZg-6" vertex="1">
          <mxGeometry x="540" y="1010" width="60" height="60" as="geometry" />
        </mxCell>
        <mxCell id="TNZuNi8cJkDnf0n_y3eP-7" style="edgeStyle=orthogonalEdgeStyle;rounded=0;orthogonalLoop=1;jettySize=auto;html=1;" edge="1" parent="2L0Wouq-ZZpo0qAsjQZg-6" source="2L0Wouq-ZZpo0qAsjQZg-26" target="2L0Wouq-ZZpo0qAsjQZg-23">
          <mxGeometry relative="1" as="geometry" />
        </mxCell>
        <mxCell id="TNZuNi8cJkDnf0n_y3eP-8" style="edgeStyle=orthogonalEdgeStyle;rounded=0;orthogonalLoop=1;jettySize=auto;html=1;" edge="1" parent="2L0Wouq-ZZpo0qAsjQZg-6" source="2L0Wouq-ZZpo0qAsjQZg-26" target="2L0Wouq-ZZpo0qAsjQZg-22">
          <mxGeometry relative="1" as="geometry" />
        </mxCell>
        <mxCell id="2L0Wouq-ZZpo0qAsjQZg-26" value="" style="sketch=0;points=[[0,0,0],[0.25,0,0],[0.5,0,0],[0.75,0,0],[1,0,0],[0,1,0],[0.25,1,0],[0.5,1,0],[0.75,1,0],[1,1,0],[0,0.25,0],[0,0.5,0],[0,0.75,0],[1,0.25,0],[1,0.5,0],[1,0.75,0]];outlineConnect=0;fontColor=#232F3E;fillColor=#8C4FFF;strokeColor=#ffffff;dashed=0;verticalLabelPosition=bottom;verticalAlign=top;align=center;html=1;fontSize=12;fontStyle=0;aspect=fixed;shape=mxgraph.aws4.resourceIcon;resIcon=mxgraph.aws4.api_gateway;" parent="2L0Wouq-ZZpo0qAsjQZg-6" vertex="1">
          <mxGeometry x="430" y="40" width="120" height="120" as="geometry" />
        </mxCell>
        <mxCell id="TNZuNi8cJkDnf0n_y3eP-16" style="edgeStyle=orthogonalEdgeStyle;rounded=0;orthogonalLoop=1;jettySize=auto;html=1;" edge="1" parent="2L0Wouq-ZZpo0qAsjQZg-6" source="TNZuNi8cJkDnf0n_y3eP-12" target="2L0Wouq-ZZpo0qAsjQZg-24">
          <mxGeometry relative="1" as="geometry" />
        </mxCell>
        <mxCell id="TNZuNi8cJkDnf0n_y3eP-12" value="" style="sketch=0;points=[[0,0,0],[0.25,0,0],[0.5,0,0],[0.75,0,0],[1,0,0],[0,1,0],[0.25,1,0],[0.5,1,0],[0.75,1,0],[1,1,0],[0,0.25,0],[0,0.5,0],[0,0.75,0],[1,0.25,0],[1,0.5,0],[1,0.75,0]];outlineConnect=0;fontColor=#232F3E;fillColor=#8C4FFF;strokeColor=#ffffff;dashed=0;verticalLabelPosition=bottom;verticalAlign=top;align=center;html=1;fontSize=12;fontStyle=0;aspect=fixed;shape=mxgraph.aws4.resourceIcon;resIcon=mxgraph.aws4.cloudfront;" vertex="1" parent="2L0Wouq-ZZpo0qAsjQZg-6">
          <mxGeometry x="850" y="70" width="83" height="83" as="geometry" />
        </mxCell>
        <mxCell id="TNZuNi8cJkDnf0n_y3eP-15" style="edgeStyle=orthogonalEdgeStyle;rounded=0;orthogonalLoop=1;jettySize=auto;html=1;" edge="1" parent="2L0Wouq-ZZpo0qAsjQZg-6" source="2L0Wouq-ZZpo0qAsjQZg-11" target="2L0Wouq-ZZpo0qAsjQZg-12">
          <mxGeometry relative="1" as="geometry" />
        </mxCell>
        <mxCell id="2L0Wouq-ZZpo0qAsjQZg-24" value="Bucket Front&lt;div&gt;&lt;br&gt;&lt;/div&gt;" style="sketch=0;points=[[0,0,0],[0.25,0,0],[0.5,0,0],[0.75,0,0],[1,0,0],[0,1,0],[0.25,1,0],[0.5,1,0],[0.75,1,0],[1,1,0],[0,0.25,0],[0,0.5,0],[0,0.75,0],[1,0.25,0],[1,0.5,0],[1,0.75,0]];outlineConnect=0;fontColor=#232F3E;fillColor=#7AA116;strokeColor=#ffffff;dashed=0;verticalLabelPosition=bottom;verticalAlign=top;align=center;html=1;fontSize=12;fontStyle=0;aspect=fixed;shape=mxgraph.aws4.resourceIcon;resIcon=mxgraph.aws4.s3;" parent="2L0Wouq-ZZpo0qAsjQZg-6" vertex="1">
          <mxGeometry x="1020" y="71.5" width="80" height="80" as="geometry" />
        </mxCell>
        <mxCell id="2L0Wouq-ZZpo0qAsjQZg-27" value="users" style="sketch=0;outlineConnect=0;gradientColor=none;fontColor=#545B64;strokeColor=none;fillColor=#879196;dashed=0;verticalLabelPosition=bottom;verticalAlign=top;align=center;html=1;fontSize=12;fontStyle=0;aspect=fixed;shape=mxgraph.aws4.illustration_users;pointerEvents=1" parent="1" vertex="1">
          <mxGeometry x="414" y="-1060" width="100" height="100" as="geometry" />
        </mxCell>
      </root>
    </mxGraphModel>
  </diagram>
</mxfile>
